HIERARCHY
ROOT Hips
{
	OFFSET 0.000000 0.000000 0.000000
	CHANNELS 6 Xposition Yposition Zposition Xrotation Yrotation Zrotation
	JOINT LeftUpLeg_virtual
	{
		OFFSET 0.000000 0.000000 0.000000
		CHANNELS 3 Xrotation Yrotation Zrotation
		JOINT LeftUpLeg
		{
			OFFSET 10.205400 -3.823500 0.155100
			CHANNELS 3 Xrotation Yrotation Zrotation
			JOINT LeftLeg
			{
				OFFSET 0.708757 -12.982077 0.567790
				CHANNELS 3 Xrotation Yrotation Zrotation
				JOINT LeftFoot
				{
					OFFSET -0.708756 -10.717838 -2.184338
					CHANNELS 3 Xrotation Yrotation Zrotation
					JOINT LeftToeBase
					{
						OFFSET 0.108149 -7.191104 7.560241
						CHANNELS 3 Xrotation Yrotation Zrotation
						JOINT LeftToe_End
						{
							OFFSET 0.070230 0.081724 4.490308
							CHANNELS 3 Xrotation Yrotation Zrotation
							End Site
							{
								OFFSET 0 0 0
							}
						}
					}
				}
			}
		}
	}
	JOINT RightUpLeg_virtual
	{
		OFFSET 0.000000 0.000000 0.000000
		CHANNELS 3 Xrotation Yrotation Zrotation
		JOINT RightUpLeg
		{
			OFFSET -10.205400 -3.823500 0.005500
			CHANNELS 3 Xrotation Yrotation Zrotation
			JOINT RightLeg
			{
				OFFSET -0.708756 -12.982134 0.610632
				CHANNELS 3 Xrotation Yrotation Zrotation
				JOINT RightFoot
				{
					OFFSET 0.708754 -10.717769 -1.945823
					CHANNELS 3 Xrotation Yrotation Zrotation
					JOINT RightToeBase
					{
						OFFSET -0.108140 -7.191069 7.372968
						CHANNELS 3 Xrotation Yrotation Zrotation
						JOINT RightToe_End
						{
							OFFSET -0.070227 0.081735 4.479403
							CHANNELS 3 Xrotation Yrotation Zrotation
							End Site
							{
								OFFSET 0 0 0
							}
						}
					}
				}
			}
		}
	}
	JOINT Spine_virtual
	{
		OFFSET 0.000000 0.000000 0.000000
		CHANNELS 3 Xrotation Yrotation Zrotation
		JOINT Spine
		{
			OFFSET 0.000000 6.876099 0.125700
			CHANNELS 3 Xrotation Yrotation Zrotation
			JOINT Spine1
			{
				OFFSET 0.000000 5.730043 0.104720
				CHANNELS 3 Xrotation Yrotation Zrotation
				JOINT Spine1_split
				{
					OFFSET 0.000000 5.730043 0.104720
					CHANNELS 3 Xrotation Yrotation Zrotation
					JOINT Spine2
					{
						OFFSET 0.000000 5.730043 0.104720
						CHANNELS 3 Xrotation Yrotation Zrotation
						JOINT Neck_virtual
						{
							OFFSET 0.000000 0.000000 0.000000
							CHANNELS 3 Xrotation Yrotation Zrotation
							JOINT Neck
							{
								OFFSET 0.000000 10.314075 0.188496
								CHANNELS 3 Xrotation Yrotation Zrotation
								JOINT Head
								{
									OFFSET 0.000000 7.643700 -2.377400
									CHANNELS 3 Xrotation Yrotation Zrotation
									JOINT HeadTop_End
									{
										OFFSET 0.000000 43.788605 -13.619600
										CHANNELS 3 Xrotation Yrotation Zrotation
										End Site
										{
											OFFSET 0 0 0
										}
									}
								}
							}
						}
						JOINT LeftShoulder_virtual
						{
							OFFSET 0.000000 0.000000 0.000000
							CHANNELS 3 Xrotation Yrotation Zrotation
							JOINT LeftShoulder
							{
								OFFSET 2.196100 4.412489 0.087492
								CHANNELS 3 Xrotation Yrotation Zrotation
								JOINT LeftShoulder_split
								{
									OFFSET 2.196100 4.412489 0.087492
									CHANNELS 3 Xrotation Yrotation Zrotation
									JOINT LeftArm
									{
										OFFSET 8.771219 -2.981674 -0.026999
										CHANNELS 3 Xrotation Yrotation Zrotation
										JOINT LeftForeArm
										{
											OFFSET 8.512804 0.000000 -0.000000
											CHANNELS 3 Xrotation Yrotation Zrotation
											JOINT LeftHand
											{
												OFFSET 18.484802 0.000000 -0.000000
												CHANNELS 3 Xrotation Yrotation Zrotation
												End Site
												{
													OFFSET 0 0 0
												}
											}
										}
									}
								}
							}
						}
						JOINT RightShoulder_virtual
						{
							OFFSET 0.000000 0.000000 0.000000
							CHANNELS 3 Xrotation Yrotation Zrotation
							JOINT RightShoulder
							{
								OFFSET -2.196100 4.412496 0.070690
								CHANNELS 3 Xrotation Yrotation Zrotation
								JOINT RightShoulder_split
								{
									OFFSET -2.196100 4.412496 0.070690
									CHANNELS 3 Xrotation Yrotation Zrotation
									JOINT RightArm
									{
										OFFSET -8.771282 -2.981682 -0.094208
										CHANNELS 3 Xrotation Yrotation Zrotation
										JOINT RightForeArm
										{
											OFFSET -8.494598 0.000000 0.000000
											CHANNELS 3 Xrotation Yrotation Zrotation
											JOINT RightHand
											{
												OFFSET -18.483803 0.000000 0.000001
												CHANNELS 3 Xrotation Yrotation Zrotation
												End Site
												{
													OFFSET 0 0 0
												}
											}
										}
									}
								}
							}
						}
					}
				}
			}
		}
	}
}
MOTION
Frames: 7
Frame Time: 0.03333333
-1.094835 28.797827 -3.791317 0.000000 0.000000 0.000000 0.470630 -51.712776 5.080855 -29.130064 13.125093 30.588780 47.932072 -1.489332 -14.411072 -14.653949 6.256554 -16.088150 2.942074 0.154535 0.718503 0.000000 0.000000 0.000000 -0.576517 -48.216778 4.492230 -26.925285 -6.276672 -31.555372 55.816074 22.560291 -10.840995 -30.896395 -15.388403 39.309477 6.440228 7.698007 -30.814241 0.000000 0.000000 0.000000 -4.145624 -45.039049 1.876567 7.130766 -3.774349 -3.762399 0.775571 -5.494809 -2.283623 0.109418 -1.324765 0.504326 0.000000 0.000000 0.000000 5.813779 -2.800141 -1.068255 -3.248999 32.450382 34.062515 69.921712 60.730272 -72.783104 0.000000 0.000000 0.000000 2.653515 -4.048909 -3.571857 -1.295329 -13.660088 -15.835534 0.723047 -7.496353 0.196076 -20.828184 -2.235712 -18.216837 17.861549 -20.350310 16.638464 0.000000 0.000000 0.000000 6.330776 -3.342008 -2.415146 -1.262328 35.442808 0.748002 2.003317 -3.777054 2.796669 -56.675421 -18.113001 19.226872 -40.974407 82.122561 52.779307 0.000000 0.000000 0.000000 
-1.326087 28.850233 -3.224602 0.000000 0.000000 0.000000 -0.325421 -50.566431 4.454641 -27.783466 13.196278 30.192086 47.460273 -1.753240 -13.953834 -15.523096 5.844000 -16.050509 2.787436 0.181338 0.898534 0.000000 0.000000 0.000000 -0.732239 -46.919739 4.262071 -24.358951 -6.749785 -31.461323 52.738257 22.353232 -10.016395 -29.878762 -15.747558 40.592661 3.064315 8.708261 -30.619168 0.000000 0.000000 0.000000 -5.828422 -44.305774 1.011384 6.269088 -4.190733 -3.241488 -0.340143 -5.822026 -1.980122 -0.188139 -1.290883 0.503214 0.000000 0.000000 0.000000 5.493093 -3.058591 -0.716881 -1.750272 32.702054 33.847754 67.446875 62.328072 -71.077763 0.000000 0.000000 0.000000 2.205867 -4.316206 -3.231995 -1.055725 -13.613935 -15.845805 1.907906 -8.369132 -2.380967 -21.369124 -2.102612 -20.497989 19.834538 -22.695218 18.098915 0.000000 0.000000 0.000000 5.776740 -3.831646 -2.251726 -1.405321 33.341773 0.893218 2.464168 -8.139033 1.969102 -55.735368 -15.841379 18.274849 -95.017938 85.185614 106.670787 0.000000 0.000000 0.000000 
-1.642467 29.111694 -2.611780 0.000000 0.000000 0.000000 -1.869849 -48.230244 3.031896 -25.105250 13.166858 28.986732 46.069971 -1.609843 -12.723463 -16.139915 5.341474 -16.209299 2.588638 0.235777 1.091633 0.000000 0.000000 0.000000 -1.476988 -44.142515 3.173339 -18.437916 -9.001892 -30.516186 46.517318 21.245582 -8.488615 -29.623797 -17.148032 39.884487 2.209427 9.076341 -29.253335 0.000000 0.000000 0.000000 -7.099759 -41.417690 -0.136898 4.577594 -4.661689 -2.198640 -1.780571 -6.399531 -1.130526 -0.285472 -1.189119 0.307737 0.000000 0.000000 0.000000 4.691138 -3.598957 0.210232 -0.301284 31.968369 33.443584 61.875715 63.680545 -67.540790 0.000000 0.000000 0.000000 1.353560 -4.768754 -2.254489 -0.812476 -13.157729 -15.913678 2.101204 -8.221417 -5.080281 -21.056111 -3.046338 -23.705396 25.604689 -26.662968 22.320312 0.000000 0.000000 0.000000 4.769741 -4.587715 -1.511384 -0.991189 29.719560 0.217693 1.411801 -9.326758 2.128800 -55.268429 -16.489209 14.837920 -153.119468 77.221531 165.555453 0.000000 0.000000 0.000000 
-1.932470 29.529636 -1.991385 0.000000 0.000000 0.000000 -3.855525 -45.086038 1.100082 -21.704108 12.828781 27.132856 44.067865 -1.126553 -10.892644 -16.704462 4.738714 -16.368029 2.363539 0.289721 1.223488 0.000000 0.000000 0.000000 -2.705046 -40.776523 1.488841 -10.885347 -12.200749 -28.829884 39.099882 19.378859 -6.724737 -29.060539 -19.194836 38.191211 3.025338 9.046769 -27.103707 0.000000 0.000000 0.000000 -7.772877 -36.855964 -1.368232 2.614716 -5.048423 -0.781438 -3.215715 -6.995099 0.109649 -0.136291 -1.071234 0.085819 0.000000 0.000000 0.000000 3.522603 -4.207778 1.513808 0.740627 30.166220 32.836189 53.423448 64.444850 -62.209991 0.000000 0.000000 0.000000 0.126867 -5.223637 -0.813292 -0.616968 -12.431685 -15.677804 1.912645 -7.604131 -6.673187 -19.980747 -4.254756 -26.782022 34.612629 -31.069055 29.041237 0.000000 0.000000 0.000000 3.484964 -5.390442 -0.370150 -0.393276 25.223463 -0.530598 -0.146466 -6.561087 3.238894 -55.330642 -20.467285 9.978941 -160.488149 66.833005 174.518505 0.000000 0.000000 0.000000 
-2.198803 30.018024 -1.326988 0.000000 0.000000 0.000000 -5.751602 -41.527171 -0.787050 -18.460538 11.982618 24.806670 42.071226 -0.659361 -8.666745 -17.171528 3.940955 -16.674935 2.017799 0.329057 1.223724 0.000000 0.000000 0.000000 -4.021840 -36.924607 -0.263331 -3.538693 -15.405980 -26.937011 32.559679 17.708280 -5.185437 -27.054985 -21.123414 37.419096 2.630724 9.358698 -24.608157 0.000000 0.000000 0.000000 -8.017390 -31.382718 -2.504741 0.854235 -5.197374 0.796437 -4.473263 -7.439578 1.544092 -0.022101 -0.819792 -0.150556 0.000000 0.000000 0.000000 2.195251 -4.668290 2.904019 1.130912 27.347314 31.689530 43.039003 64.377887 -55.776872 0.000000 0.000000 0.000000 -1.295877 -5.515629 0.875813 -0.501527 -11.823089 -14.833178 2.137763 -7.455445 -7.359040 -18.756454 -5.020957 -28.936831 45.431683 -34.672800 37.274849 0.000000 0.000000 0.000000 2.039543 -5.982032 0.975773 -0.046093 20.372339 -0.550372 -3.118340 -1.314859 4.061802 -57.093934 -26.961721 4.757447 -160.104074 60.103165 176.315432 0.000000 0.000000 0.000000 
-2.408850 30.502197 -0.719759 0.000000 0.000000 0.000000 -7.203789 -37.956703 -2.230789 -16.060174 10.318024 22.192342 40.667687 -0.400119 -6.330008 -17.615819 2.878180 -17.125275 1.360130 0.313232 1.124520 0.000000 0.000000 0.000000 -5.248410 -32.995643 -1.713694 2.493097 -17.918861 -25.324630 27.829614 16.747433 -4.096205 -23.807046 -22.455659 37.704297 0.246509 10.085366 -22.076730 0.000000 0.000000 0.000000 -8.086957 -26.326930 -3.402664 -0.388174 -5.050035 2.297023 -5.508457 -7.516435 2.881680 -0.032636 -0.506652 -0.301357 0.000000 0.000000 0.000000 0.986786 -4.819448 4.118137 0.750824 24.057125 29.602699 32.625235 63.829224 -49.809721 0.000000 0.000000 0.000000 -2.610453 -5.504034 2.547303 -0.517983 -11.817400 -13.511129 2.918592 -7.411802 -7.385541 -17.903719 -4.541913 -29.782493 55.227783 -36.196902 44.528247 0.000000 0.000000 0.000000 0.609962 -6.199767 2.322075 -0.015858 15.655101 0.424713 -8.032039 2.180548 5.501433 -61.268764 -34.344749 0.092961 -156.424555 58.542303 175.016904 0.000000 0.000000 0.000000 
-2.545535 30.937294 -0.154266 0.000000 0.000000 0.000000 -8.177727 -34.303324 -3.135418 -14.631259 8.043584 19.442711 40.166071 -0.295181 -4.255910 -17.947613 1.724327 -17.634847 0.328563 0.272957 0.921560 0.000000 0.000000 0.000000 -6.343063 -29.348684 -2.618911 7.077857 -19.619167 -24.187110 24.726465 16.074620 -3.330527 -20.960592 -23.452467 37.187569 -2.257408 10.720290 -19.779026 0.000000 0.000000 0.000000 -8.355679 -22.155518 -3.938839 -1.023434 -4.658700 3.635431 -6.309375 -7.223436 3.955007 -0.052690 -0.158389 -0.327332 0.000000 0.000000 0.000000 0.057934 -4.668256 5.058985 -0.241515 21.024321 26.463720 23.831966 63.472490 -45.295246 0.000000 0.000000 0.000000 -3.667784 -5.193791 3.979925 -0.640936 -12.799090 -11.819892 4.124620 -7.233198 -6.625016 -17.649291 -2.541924 -29.707307 61.471477 -35.840455 48.530827 0.000000 0.000000 0.000000 -0.504338 -6.039818 3.423752 -0.211667 11.388799 1.978520 -12.589518 2.697068 6.686771 -67.706490 -40.846003 -3.546614 -149.274754 61.800918 170.040005 0.000000 0.000000 0.000000 
